<svg xmlns="http://www.w3.org/2000/svg" xmlns:xlink="http://www.w3.org/1999/xlink" version="1.1" id="Layer_1" x="0px" y="0px" viewBox="0 0 100 100" enable-background="new 0 0 100 100" xml:space="preserve">
<path d="M50,57c8.271,0,15-6.729,15-15c0-8.271-6.729-15-15-15c-8.271,0-15,6.729-15,15C35,50.271,41.729,57,50,57z M54.129,44.93  c-0.02,0.162-0.094,0.322-0.211,0.473c-0.551,0.705-2.098,1.722-3.919,1.722c-1.823,0-3.37-1.019-3.92-1.722  c-0.117-0.149-0.189-0.311-0.21-0.473c0.028-0.012,0.091-0.033,0.174-0.07c0.034-0.016,0.072-0.032,0.111-0.055  c0.333-0.174,0.823-0.539,0.823-1.182l0,0c0.525,0.521,1.11,0.934,1.735,1.182c0.42,0.166,0.858,0.26,1.31,0.26  s0.888-0.092,1.308-0.26c0.619-0.246,1.199-0.652,1.723-1.166c0.004,0,0.008,0.002,0.01,0.004c0.015,0.826,0.845,1.189,1.066,1.271  C54.129,44.92,54.129,44.924,54.129,44.93z M55.09,38.8c-0.084,0.466-0.266,0.85-0.461,1.015c-0.076,0.065-0.154,0.096-0.23,0.083  c-0.043-0.007-0.082-0.028-0.114-0.061c-0.429,1.327-1.244,2.65-2.272,3.446c-0.603,0.463-1.273,0.746-1.987,0.746  c-0.716,0-1.395-0.285-1.998-0.756c-1.024-0.796-1.836-2.113-2.261-3.437c-0.035,0.032-0.074,0.053-0.116,0.061  c-0.088,0.016-0.182-0.028-0.271-0.118c-0.18-0.18-0.344-0.543-0.422-0.979c-0.102-0.574-0.021-1.081,0.182-1.227  c0.026-0.02,0.057-0.033,0.089-0.039c0.072-0.012,0.147,0.016,0.223,0.075l0,0c0,0,0.001-0.006,0.002-0.018  c0.025-0.25,0.357-3.045,2.45-2.851l6.4,3.294l0.52-0.5c0.02,0.003,0.037,0.009,0.053,0.017C55.102,37.66,55.199,38.192,55.09,38.8z   M38.889,50.041c-1.642-2.262-2.612-5.039-2.612-8.039c0-7.567,6.157-13.725,13.724-13.725c7.567,0,13.724,6.156,13.724,13.725  c0,3-0.972,5.777-2.611,8.039c-0.012-0.051-0.021-0.104-0.037-0.152c-1.266-4.357-3.607-4.508-4.111-4.625  c-0.059-0.016-0.117-0.027-0.176-0.037c-1.529-1.414-0.486-7.311-0.486-7.311c0-8.989-6.079-8.105-6.079-8.105  c-0.073-0.004-0.147-0.007-0.221-0.01c-0.072,0.003-0.146,0.006-0.221,0.01c0,0-6.08-0.884-6.08,8.105c0,0,1.043,5.896-0.485,7.311  c-0.06,0.01-0.118,0.021-0.177,0.037c-0.504,0.117-2.845,0.268-4.112,4.625C38.91,49.938,38.899,49.99,38.889,50.041z"/>
<path d="M92.826,13.511H50.754h-1.432H7.248c-1.499,0-2.79,1.14-2.79,2.639v51.864v0.184v4.805v0.303  c0,1.498,1.291,2.758,2.79,2.758h33.697c-0.039,0.859-0.308,4.557-2.065,6.35c-1.386,1.41-3.313,2.736-2.56,3.416  c0.183,0.416,1.046,0.66,3.011,0.66c4.333,0,9.027,0,10.745,0c0.434,0,0.678,0,0.678,0c1.717,0,6.412,0,10.744,0  c2.24,0,3.021-0.367,3.029-0.914h-0.078v-0.184h-0.078c-0.102-0.734-1.592-1.828-2.721-2.979c-1.76-1.793-2.027-5.488-2.068-6.35  h33.246c1.498,0,2.715-1.26,2.715-2.758v-0.303v-4.805v-0.184V16.151C95.541,14.651,94.326,13.511,92.826,13.511z M50,73.432  c-0.978,0-1.771-0.791-1.771-1.77s0.793-1.771,1.771-1.771c0.977,0,1.77,0.793,1.77,1.771S50.977,73.432,50,73.432z M91.701,64.174  H8.298V17.17h83.403V64.174z"/>
</svg>