<svg xmlns="http://www.w3.org/2000/svg" xmlns:xlink="http://www.w3.org/1999/xlink" version="1.1" id="Layer_1" x="0px" y="0px" viewBox="0 0 100 100" enable-background="new 0 0 100 100" xml:space="preserve">
<g>
  <g>
    <path d="M90.7,70.4h-3V11.2h3c0.8,0,1.4-0.6,1.4-1.4c0-0.8-0.6-1.4-1.4-1.4H51.4V6.4C51.4,5.6,50.8,5,50,5c-0.8,0-1.4,0.6-1.4,1.4    v1.8H9.3c-0.8,0-1.4,0.6-1.4,1.4c0,0.8,0.6,1.4,1.4,1.4h3v59.2h-3c-0.8,0-1.4,0.6-1.4,1.4c0,0.8,0.6,1.4,1.4,1.4h28.9L18.9,92.5    c-0.6,0.6-0.6,1.5,0,2c0.3,0.3,0.6,0.4,1,0.4c0.4,0,0.7-0.1,1-0.4l21.3-21.3h6.3v16.2c0,0.8,0.6,1.4,1.4,1.4    c0.8,0,1.4-0.6,1.4-1.4V73.3h6.3l21.3,21.3c0.3,0.3,0.6,0.4,1,0.4c0.4,0,0.7-0.1,1-0.4c0.6-0.6,0.6-1.5,0-2L61.9,73.3h28.9    c0.8,0,1.4-0.6,1.4-1.4C92.2,71,91.5,70.4,90.7,70.4z M15.1,70.4V11.2h69.8v59.2H15.1z"/>
  </g>
</g>
<g>
  <g>
    <path d="M46.5,48.7c-0.2,0-0.5-0.1-0.7-0.2c-0.5-0.2-0.8-0.7-0.8-1.3v-13c0-0.5,0.3-1,0.8-1.3c0.5-0.2,1-0.2,1.5,0.1l9.5,6.5    c0.4,0.3,0.6,0.7,0.6,1.2c0,0.5-0.2,0.9-0.6,1.2l-9.5,6.5C47.1,48.6,46.8,48.7,46.5,48.7z M47.9,37v7.5l5.5-3.8L47.9,37z"/>
  </g>
  <g>
    <path d="M50,56c-8.4,0-15.2-6.8-15.2-15.2c0-8.4,6.8-15.2,15.2-15.2s15.2,6.8,15.2,15.2C65.3,49.2,58.4,56,50,56z M50,28.4    c-6.8,0-12.4,5.6-12.4,12.4c0,6.8,5.6,12.4,12.4,12.4s12.4-5.6,12.4-12.4C62.4,33.9,56.8,28.4,50,28.4z"/>
  </g>
</g>
</svg>